<svg width="73" height="14" viewBox="0 0 73 14" fill="none" xmlns="http://www.w3.org/2000/svg">
<path d="M6.47685 1.46353C6.62653 1.00287 7.27823 1.00287 7.42791 1.46353L8.40103 4.45849C8.46797 4.6645 8.65995 4.80398 8.87656 4.80398H12.0256C12.51 4.80398 12.7114 5.42378 12.3195 5.70849L9.77187 7.55947C9.59663 7.68679 9.5233 7.91248 9.59024 8.11849L10.5634 11.1134C10.713 11.5741 10.1858 11.9572 9.79394 11.6725L7.24627 9.82148C7.07103 9.69416 6.83373 9.69416 6.65849 9.82148L4.11082 11.6725C3.71897 11.9572 3.19173 11.5741 3.3414 11.1134L4.31452 8.11849C4.38146 7.91248 4.30813 7.68679 4.13289 7.55947L1.58522 5.70849C1.19337 5.42379 1.39475 4.80398 1.87912 4.80398H5.0282C5.24482 4.80398 5.43679 4.6645 5.50373 4.45849L6.47685 1.46353Z" fill="#F6C644"/>
<path d="M21.2503 1.46353C21.4 1.00287 22.0517 1.00287 22.2013 1.46353L23.1745 4.45849C23.2414 4.6645 23.4334 4.80398 23.65 4.80398H26.7991C27.2834 4.80398 27.4848 5.42378 27.093 5.70849L24.5453 7.55947C24.3701 7.68679 24.2967 7.91248 24.3637 8.11849L25.3368 11.1134C25.4865 11.5741 24.9592 11.9572 24.5674 11.6725L22.0197 9.82148C21.8445 9.69416 21.6072 9.69416 21.4319 9.82148L18.8843 11.6725C18.4924 11.9572 17.9652 11.5741 18.1148 11.1134L19.088 8.11849C19.1549 7.91248 19.0816 7.68679 18.9063 7.55947L16.3587 5.70849C15.9668 5.42379 16.1682 4.80398 16.6526 4.80398H19.8016C20.0183 4.80398 20.2102 4.6645 20.2772 4.45849L21.2503 1.46353Z" fill="#F6C644"/>
<path d="M36.0237 1.46353C36.1734 1.00287 36.8251 1.00287 36.9748 1.46353L37.9479 4.45849C38.0148 4.6645 38.2068 4.80398 38.4234 4.80398H41.5725C42.0569 4.80398 42.2583 5.42378 41.8664 5.70849L39.3187 7.55947C39.1435 7.68679 39.0702 7.91248 39.1371 8.11849L40.1102 11.1134C40.2599 11.5741 39.7327 11.9572 39.3408 11.6725L36.7931 9.82148C36.6179 9.69416 36.3806 9.69416 36.2054 9.82148L33.6577 11.6725C33.2658 11.9572 32.7386 11.5741 32.8883 11.1134L33.8614 8.11849C33.9283 7.91248 33.855 7.68679 33.6798 7.55947L31.1321 5.70849C30.7402 5.42379 30.9416 4.80398 31.426 4.80398H34.5751C34.7917 4.80398 34.9837 4.6645 35.0506 4.45849L36.0237 1.46353Z" fill="#F6C644"/>
<path d="M50.7991 1.46353C50.9488 1.00287 51.6005 1.00287 51.7502 1.46353L52.7233 4.45849C52.7902 4.6645 52.9822 4.80398 53.1988 4.80398H56.3479C56.8323 4.80398 57.0337 5.42378 56.6418 5.70849L54.0941 7.55947C53.9189 7.68679 53.8456 7.91248 53.9125 8.11849L54.8856 11.1134C55.0353 11.5741 54.5081 11.9572 54.1162 11.6725L51.5685 9.82148C51.3933 9.69416 51.156 9.69416 50.9808 9.82148L48.4331 11.6725C48.0412 11.9572 47.514 11.5741 47.6637 11.1134L48.6368 8.11849C48.7037 7.91248 48.6304 7.68679 48.4552 7.55947L45.9075 5.70849C45.5156 5.42379 45.717 4.80398 46.2014 4.80398H49.3505C49.5671 4.80398 49.7591 4.6645 49.826 4.45849L50.7991 1.46353Z" fill="#F6C644"/>
<path d="M65.5726 1.46353C65.7222 1.00287 66.3739 1.00287 66.5236 1.46353L67.4967 4.45849C67.5637 4.6645 67.7556 4.80398 67.9723 4.80398H71.1213C71.6057 4.80398 71.8071 5.42378 71.4152 5.70849L68.8676 7.55947C68.6923 7.68679 68.619 7.91248 68.6859 8.11849L69.6591 11.1134C69.8087 11.5741 69.2815 11.9572 68.8896 11.6725L66.342 9.82148C66.1667 9.69416 65.9294 9.69416 65.7542 9.82148L63.2065 11.6725C62.8147 11.9572 62.2874 11.5741 62.4371 11.1134L63.4102 8.11849C63.4772 7.91248 63.4038 7.68679 63.2286 7.55947L60.6809 5.70849C60.2891 5.42379 60.4905 4.80398 60.9748 4.80398H64.1239C64.3405 4.80398 64.5325 4.6645 64.5994 4.45849L65.5726 1.46353Z" fill="#F6C644"/>
</svg>
